<svg xmlns="http://www.w3.org/2000/svg" width="235" height="400" viewBox="0 0 235 400">
  <defs>
    <style>
      .cls-1 {
        fill: #f4bd30;
        fill-rule: evenodd;
      }
    </style>
  </defs>
  <path id="Shape_7_copy" data-name="Shape 7 copy" class="cls-1" d="M233-3.416C194.839,6.341,153.476-18.268,131,47c-8.225,23.882-.515,117.489-9,192-3.276,28.762-18.741,76.655-34.691,103.8C66.816,377.673-30.456,426.612-77,445c-28.944,11.435-33.121,3.123-65.043,17.846-21.351,9.848-8.663,26.644-19.153,49.21a118.6,118.6,0,0,0-4.813,12.07C152.141,574.979,693.7,655.149,1011.85,706,1265.07,505.537,1145.28,363.469,1175,178,952.572,58.821,608.578-99.448,233-3.416Z"/>
</svg>
